# xmcd
#
# Track frame offsets: 
#        150
#        29152
#        58735
#        88702
#        129858
#        166494
#        189161
#
# Disc length: 2909 seconds
#
# Revision: 1
# Processed by: cddbd v1.5.2PL0 Copyright (c) Steve Scherf et al.
# Submitted via: ExactAudioCopy v1.0b3
#
DISCID=580b5b07
DTITLE=Heaven and Hell - 2007-06-03 CD1
DYEAR=2007
DGENRE=Heavy Metal
TTITLE0=E5150 - The Mob Rules
TTITLE1=Children Of The Sea
TTITLE2=I
TTITLE3=The Sign Of The Southern Cross
TTITLE4=Voodoo
TTITLE5=Drum Solo
TTITLE6=Computer God
EXTD=
EXTT0=
EXTT1=
EXTT2=
EXTT3=
EXTT4=
EXTT5=
EXTT6=
PLAYORDER=
